# xmcd CD database file
#
# Track frame offsets:
#	182
#	10775
#	23082
#	35652
#	49135
#	61242
#	75042
#	87752
#	98217
#	109717
#	118997
#	132547
#
# Disc length: 1929 seconds
#
# Revision: 6
# Processed by: cddbd v1.5.2PL0 Copyright (c) Steve Scherf et al.
# Submitted via: CDex 1.79
#
DISCID=9007870c
DTITLE=The Best Of Chess Rhythm and  Blues - The Best Of Chess Rhythm and  Blues   CD1
DYEAR=1988
DGENRE=R&B Chess
TTITLE0=The Moonglows - Please Send Me Someone To Love 
TTITLE1=The Miracles - Bad Girl 
TTITLE2=Jimmy McCracklin - The Walk 
TTITLE3=The Corsairs - Smokey Places 
TTITLE4=The Vibrations - The Watusi 
TTITLE5=Sugar Pie DeSanto - I Want To Know 
TTITLE6=Etta James - Something's Got A Hold On Me 
TTITLE7=Clarence "Frogman" Henry - (I Don't Know Why) But I Do 
TTITLE8=Bobby Moore and The Rhythm Aces - Searching For My Love 
TTITLE9=Jan Bradley - Mama Didn't Lie 
TTITLE10=Billy Stewart - I Do Love You 
TTITLE11=Little Milton - We're Gonna Make It 
EXTD=YEAR: 1988
EXTT0=
EXTT1=
EXTT2=
EXTT3=
EXTT4=
EXTT5=
EXTT6=
EXTT7=
EXTT8=
EXTT9=
EXTT10=
EXTT11=
PLAYORDER=
